<?xml version="1.0" standalone="no"?>
<!DOCTYPE svg PUBLIC "-//W3C//DTD SVG 20010904//EN"
 "http://www.w3.org/TR/2001/REC-SVG-20010904/DTD/svg10.dtd">
<svg version="1.0" xmlns="http://www.w3.org/2000/svg"
 width="175.000000pt" height="179.000000pt" viewBox="0 0 175.000000 179.000000"
 preserveAspectRatio="xMidYMid meet">
<metadata>
Created by potrace 1.10, written by Peter Selinger 2001-2011
</metadata>
<g transform="translate(0.000000,179.000000) scale(0.100000,-0.100000)"
fill="#203440" stroke="none">
<path d="M700 1720 c-350 -74 -614 -347 -675 -695 -19 -111 -19 -189 0 -300
72 -410 435 -715 850 -715 415 0 778 305 850 715 19 111 19 189 0 300 -84 478
-552 796 -1025 695z m382 -32 c291 -66 531 -307 611 -613 29 -111 28 -298 -2
-409 -24 -92 -85 -220 -138 -293 -39 -54 -53 -64 -53 -37 0 8 5 12 10 9 6 -3
10 -2 10 4 0 5 6 16 13 23 15 15 68 104 80 132 6 16 5 17 -8 6 -8 -7 -15 -16
-15 -21 0 -11 -46 -83 -85 -133 -44 -56 -70 -81 -131 -127 -54 -41 -76 -74
-29 -43 14 9 25 21 25 26 0 5 4 7 8 4 4 -2 32 20 61 50 30 30 56 52 60 49 12
-12 -113 -118 -194 -164 -34 -20 -37 -20 -17 -3 33 30 27 37 -10 10 -18 -13
-35 -23 -38 -22 -3 0 -24 -8 -47 -18 -22 -10 -55 -21 -72 -24 -17 -4 -29 -9
-27 -13 2 -3 -12 -7 -32 -8 -19 -1 -38 -5 -41 -10 -3 -5 -64 -8 -136 -8 -103
1 -148 6 -215 24 -198 53 -373 178 -476 339 -20 31 -39 50 -45 46 -8 -4 -9 1
-4 15 4 12 2 28 -4 34 -5 7 -23 49 -40 92 -16 44 -30 74 -30 66 -1 -8 -4 -11
-7 -8 -4 4 -2 12 4 20 7 8 7 18 2 27 -8 12 -10 11 -11 -5 0 -15 -3 -13 -9 8
-33 108 -15 334 37 457 60 143 104 211 192 298 217 214 497 291 803 220z
m-963 -1168 c11 -24 11 -24 -3 -6 -9 11 -16 24 -16 30 0 12 5 7 19 -24z m1106
-410 c-3 -5 -11 -10 -16 -10 -6 0 -7 5 -4 10 3 6 11 10 16 10 6 0 7 -4 4 -10z"/>
<path d="M760 1682 c0 -9 87 -9 96 1 4 4 -16 7 -44 7 -29 0 -52 -3 -52 -8z"/>
<path d="M930 1680 c30 -4 59 -4 63 0 4 4 -20 7 -55 7 l-63 1 55 -8z"/>
<path d="M620 1654 c-41 -13 -85 -31 -97 -40 -13 -8 -23 -12 -23 -9 0 3 -20
-8 -44 -25 -25 -16 -47 -30 -50 -30 -30 0 -207 -189 -244 -261 -31 -60 -32
-62 -7 -34 14 17 29 38 33 47 24 60 170 210 242 249 16 9 37 22 46 30 9 7 21
14 28 16 30 8 220 73 224 78 12 12 -38 2 -108 -21z"/>
<path d="M1025 1670 c28 -12 37 -12 30 0 -3 6 -16 10 -28 9 -21 0 -21 -1 -2
-9z"/>
<path d="M1085 1656 c11 -7 38 -19 60 -26 22 -7 57 -21 79 -32 27 -14 37 -16
34 -6 -3 7 -9 13 -14 14 -5 0 -26 8 -46 17 -21 10 -44 17 -52 17 -8 0 -18 5
-21 10 -4 6 -10 8 -15 5 -5 -3 -11 -1 -15 5 -3 5 -11 10 -18 10 -6 0 -3 -6 8
-14z"/>
<path d="M752 1648 c-123 -19 -269 -83 -377 -165 -114 -88 -229 -267 -272
-423 -25 -90 -25 -300 0 -390 86 -318 352 -550 675 -589 397 -48 762 205 863
597 26 104 26 271 -1 378 -102 398 -484 653 -888 592z m312 -40 c274 -68 485
-283 557 -568 28 -110 23 -287 -11 -395 -76 -244 -254 -424 -505 -513 -104
-36 -298 -43 -415 -13 -276 68 -488 276 -561 551 -32 118 -32 282 0 394 115
411 522 647 935 544z"/>
<path d="M412 1388 c3 -8 19 -12 42 -10 l37 4 -2 -266 -2 -266 -38 0 c-27 0
-39 -4 -39 -14 0 -12 19 -15 90 -15 71 0 90 3 90 15 0 9 -11 14 -35 14 -27 0
-35 4 -35 18 -5 348 -5 482 2 482 4 0 8 -4 8 -9 0 -5 68 -104 150 -221 178
-251 175 -247 159 -266 -6 -8 -8 -18 -4 -22 4 -4 12 1 19 12 6 10 25 32 42 48
l32 29 0 167 c0 92 1 195 1 230 l1 64 32 -4 c19 -2 33 2 35 10 4 9 -18 12 -87
12 -69 0 -91 -3 -87 -12 2 -8 16 -12 34 -10 41 4 43 -5 42 -233 0 -151 -3
-186 -12 -171 -7 11 -62 89 -123 175 -60 86 -125 177 -143 204 l-32 47 -90 0
c-68 0 -90 -3 -87 -12z m164 -16 c6 -4 19 -22 29 -39 11 -18 23 -33 28 -33 5
0 6 -8 3 -17 -4 -10 -4 -14 0 -11 4 4 33 -30 66 -75 53 -74 57 -83 42 -94 -19
-14 -21 -12 -89 92 -22 33 -44 63 -50 67 -5 4 -7 10 -4 13 4 3 -16 28 -42 55
-48 49 -48 50 -21 50 15 0 32 -4 38 -8z m201 -283 c-3 -12 -3 -18 0 -15 3 3
19 -14 36 -37 16 -23 43 -56 60 -74 25 -26 28 -35 18 -47 -7 -8 -19 -12 -26
-10 -16 6 -105 137 -105 154 0 6 -4 8 -10 5 -5 -3 -10 1 -10 9 0 8 8 20 18 25
24 14 25 14 19 -10z"/>
<path d="M1174 1039 c-4 -7 1 -18 11 -26 14 -10 15 -13 4 -13 -23 0 -174 -159
-163 -170 7 -7 15 -2 23 14 39 71 174 57 216 -23 8 -17 15 -41 15 -56 0 -14 6
-25 13 -25 10 0 13 19 12 73 l0 72 -45 12 c-25 7 -66 13 -92 13 -27 0 -48 4
-48 9 0 16 72 72 88 69 24 -5 28 -38 5 -38 -15 0 -16 2 -3 10 13 8 12 10 -3
10 -12 0 -17 -6 -15 -17 4 -23 38 -23 51 -1 9 13 7 21 -5 35 -9 10 -18 27 -20
38 -4 23 -33 32 -44 14z"/>
<path d="M1241 1026 c-17 -20 3 -30 29 -14 11 7 20 16 20 20 0 14 -37 9 -49
-6z"/>
<path d="M742 758 c-57 -55 -65 -60 -79 -46 -8 9 -12 21 -9 27 10 16 29 13 23
-3 -4 -10 -1 -13 9 -9 17 6 18 15 2 31 -18 18 -36 15 -48 -9 -9 -16 -8 -24 3
-37 8 -9 17 -26 19 -37 4 -25 48 -34 48 -10 0 11 -5 15 -15 11 -8 -3 -15 -1
-15 4 0 6 5 10 11 10 13 0 129 109 129 122 0 17 -17 6 -78 -54z"/>
<path d="M977 802 c-24 -26 -21 -80 6 -119 20 -31 42 -44 193 -116 41 -21 84
-73 84 -104 0 -33 -40 -84 -77 -100 -86 -35 -177 19 -192 115 -3 19 -12 37
-19 40 -10 3 -12 -15 -10 -79 l3 -83 65 -12 c82 -16 125 -17 173 -3 120 33
165 181 80 261 -16 14 -62 41 -103 59 -100 43 -137 71 -145 111 -11 49 -32 59
-58 30z m77 -99 c14 -15 32 -28 41 -29 8 -1 45 -16 81 -33 51 -24 65 -35 60
-47 -5 -14 -4 -15 7 -5 18 14 31 0 51 -57 13 -35 13 -44 1 -55 -11 -11 -11
-17 -2 -27 9 -10 9 -11 -3 -8 -8 3 -15 16 -15 29 0 13 -7 36 -14 51 -12 23
-12 30 0 45 13 17 13 17 -7 1 -19 -17 -21 -17 -37 2 -9 11 -24 20 -32 20 -8 0
-15 5 -15 11 0 7 -9 9 -21 6 -14 -4 -32 5 -59 29 -26 24 -40 31 -43 22 -3 -8
-6 -5 -6 6 -1 11 -6 16 -15 13 -25 -10 -53 77 -34 101 9 10 14 7 24 -17 7 -17
24 -43 38 -58z"/>
<path d="M604 676 c-10 -8 -16 -18 -11 -22 8 -8 57 15 57 28 0 13 -24 9 -46
-6z"/>
<path d="M1270 1583 c0 -4 18 -18 40 -31 22 -12 56 -36 75 -53 19 -17 35 -27
35 -21 0 5 -16 20 -35 33 -19 13 -35 27 -35 32 0 4 -5 7 -11 7 -6 0 -24 9 -40
21 -16 11 -29 17 -29 12z"/>
<path d="M1470 1420 c11 -11 23 -20 27 -20 3 0 -2 9 -12 20 -10 11 -22 20 -27
20 -4 0 1 -9 12 -20z"/>
<path d="M1524 1358 c14 -20 26 -40 26 -43 0 -4 10 -21 22 -38 13 -18 23 -34
24 -37 2 -18 35 -82 40 -77 3 3 2 12 -2 19 -5 7 -9 19 -10 26 -4 21 -66 120
-98 155 l-28 32 26 -37z"/>
<path d="M102 1175 c-14 -30 -16 -54 -4 -39 15 17 32 64 23 64 -4 0 -13 -11
-19 -25z"/>
<path d="M1636 1135 c4 -8 8 -15 10 -15 2 0 4 7 4 15 0 8 -4 15 -10 15 -5 0
-7 -7 -4 -15z"/>
<path d="M76 1094 c-10 -38 0 -41 12 -5 6 17 7 31 3 31 -5 0 -12 -12 -15 -26z"/>
<path d="M1661 1065 c0 -11 4 -29 9 -40 9 -20 9 -20 9 0 0 11 -4 29 -9 40 -9
20 -9 20 -9 0z"/>
<path d="M56 1008 c-12 -91 -14 -136 -9 -205 9 -118 18 -83 16 62 -1 75 2 147
7 160 6 15 6 25 0 25 -5 0 -11 -19 -14 -42z"/>
<path d="M1676 992 c-2 -4 -1 -14 4 -22 7 -11 9 -9 7 8 -1 24 -3 26 -11 14z"/>
<path d="M1684 865 c1 -33 16 -33 16 0 0 14 -4 25 -9 25 -5 0 -8 -11 -7 -25z"/>
<path d="M1680 753 c0 -24 3 -33 9 -25 7 12 4 62 -5 62 -2 0 -4 -17 -4 -37z"/>
<path d="M1667 704 c-4 -4 -7 -19 -6 -33 l0 -26 10 24 c10 26 8 47 -4 35z"/>
<path d="M1633 584 c-12 -30 -17 -54 -13 -54 9 0 45 99 38 105 -2 2 -13 -21
-25 -51z"/>
</g>
</svg>
