<?xml version="1.0" standalone="no"?>
<!DOCTYPE svg PUBLIC "-//W3C//DTD SVG 20010904//EN"
 "http://www.w3.org/TR/2001/REC-SVG-20010904/DTD/svg10.dtd">
<svg version="1.0" xmlns="http://www.w3.org/2000/svg"
 width="360.000000pt" height="360.000000pt" viewBox="0 0 360.000000 360.000000"
 preserveAspectRatio="xMidYMid meet">

<g transform="translate(0.000000,360.000000) scale(0.100000,-0.100000)"
fill="#000000" stroke="none">
<path d="M510 2860 c-20 -20 -20 -33 -20 -644 0 -343 3 -631 6 -640 9 -23 265
-166 296 -166 17 0 34 10 47 26 20 26 21 38 21 395 l0 368 26 20 c15 12 36 21
48 21 11 0 123 -58 247 -130 125 -71 234 -130 244 -130 9 0 118 59 243 130
125 72 237 130 250 130 13 0 34 -11 48 -25 l24 -24 -2 -207 -3 -207 -277 -160
-278 -159 0 -207 c0 -151 3 -211 13 -223 16 -20 716 -418 735 -418 14 0 843
469 905 512 l27 19 0 419 c0 367 -2 421 -16 434 -35 36 -57 30 -198 -50 -109
-63 -137 -84 -146 -107 -6 -17 -10 -124 -10 -248 0 -119 -3 -224 -6 -233 -9
-23 -526 -316 -558 -316 -34 0 -273 136 -293 167 -12 18 -13 32 -7 56 9 28 34
45 238 163 126 72 232 138 237 145 5 8 9 296 9 642 0 614 0 627 -20 647 -11
11 -31 20 -45 20 -14 0 -200 -101 -434 -235 -263 -152 -419 -235 -436 -235
-18 0 -174 84 -437 235 -225 129 -421 235 -434 235 -13 0 -33 -9 -44 -20z"/>
<path d="M2897 2802 c-153 -92 -150 -87 -145 -283 3 -151 14 -179 68 -179 28
0 256 129 278 157 13 19 18 329 4 349 -9 14 -47 34 -64 34 -7 -1 -71 -35 -141
-78z"/>
</g>
</svg>
